<svg xmlns="http://www.w3.org/2000/svg" xmlns:xlink="http://www.w3.org/1999/xlink" width="128" zoomAndPan="magnify" viewBox="0 0 96 95.999999" height="128" preserveAspectRatio="xMidYMid meet" version="1.0"><defs><clipPath id="c03a4fd007"><path d="M 7.511719 7.476562 L 88.476562 7.476562 L 88.476562 88.753906 L 7.511719 88.753906 Z M 7.511719 7.476562 " clip-rule="nonzero"/></clipPath><clipPath id="5980690c4d"><path d="M 88.476562 19.476562 L 88.476562 76.523438 C 88.476562 79.707031 87.210938 82.757812 84.960938 85.007812 C 82.710938 87.257812 79.660156 88.523438 76.476562 88.523438 L 19.511719 88.523438 C 16.328125 88.523438 13.277344 87.257812 11.027344 85.007812 C 8.777344 82.757812 7.511719 79.707031 7.511719 76.523438 L 7.511719 19.476562 C 7.511719 16.292969 8.777344 13.242188 11.027344 10.992188 C 13.277344 8.742188 16.328125 7.476562 19.511719 7.476562 L 76.476562 7.476562 C 79.660156 7.476562 82.710938 8.742188 84.960938 10.992188 C 87.210938 13.242188 88.476562 16.292969 88.476562 19.476562 Z M 88.476562 19.476562 " clip-rule="nonzero"/></clipPath><clipPath id="8f34ee4cd6"><path d="M 0.511719 0.476562 L 81.476562 0.476562 L 81.476562 81.558594 L 0.511719 81.558594 Z M 0.511719 0.476562 " clip-rule="nonzero"/></clipPath><clipPath id="856591793f"><path d="M 81.476562 12.476562 L 81.476562 69.523438 C 81.476562 72.707031 80.210938 75.757812 77.960938 78.007812 C 75.710938 80.257812 72.660156 81.523438 69.476562 81.523438 L 12.511719 81.523438 C 9.328125 81.523438 6.277344 80.257812 4.027344 78.007812 C 1.777344 75.757812 0.511719 72.707031 0.511719 69.523438 L 0.511719 12.476562 C 0.511719 9.292969 1.777344 6.242188 4.027344 3.992188 C 6.277344 1.742188 9.328125 0.476562 12.511719 0.476562 L 69.476562 0.476562 C 72.660156 0.476562 75.710938 1.742188 77.960938 3.992188 C 80.210938 6.242188 81.476562 9.292969 81.476562 12.476562 Z M 81.476562 12.476562 " clip-rule="nonzero"/></clipPath><clipPath id="e88ba81960"><rect x="0" width="82" y="0" height="82"/></clipPath><clipPath id="23a7ce0cbb"><path d="M 13.515625 13.515625 L 82.515625 13.515625 L 82.515625 82.515625 L 13.515625 82.515625 Z M 13.515625 13.515625 " clip-rule="nonzero"/></clipPath></defs><g clip-path="url(#c03a4fd007)"><g clip-path="url(#5980690c4d)"><g transform="matrix(1, 0, 0, 1, 7, 7)"><g clip-path="url(#e88ba81960)"><g clip-path="url(#8f34ee4cd6)"><g clip-path="url(#856591793f)"><path fill="#cadbe4" d="M 0.511719 0.476562 L 81.476562 0.476562 L 81.476562 81.4375 L 0.511719 81.4375 Z M 0.511719 0.476562 " fill-opacity="1" fill-rule="nonzero"/></g></g></g></g></g></g><g clip-path="url(#23a7ce0cbb)"><path fill="#006b57" d="M 48.019531 13.519531 C 67.066406 13.519531 82.519531 28.964844 82.519531 48.015625 C 82.519531 67.070312 67.066406 82.515625 48.019531 82.515625 C 28.96875 82.515625 13.515625 67.070312 13.515625 48.015625 C 13.515625 28.964844 28.96875 13.519531 48.019531 13.519531 " fill-opacity="1" fill-rule="nonzero"/></g><path fill="#f5cc00" d="M 48.019531 24.832031 L 48.933594 27.609375 L 51.890625 27.609375 L 49.496094 29.332031 L 50.414062 32.109375 L 48.019531 30.386719 L 45.621094 32.109375 L 46.535156 29.332031 L 44.144531 27.609375 L 47.105469 27.609375 Z M 48.019531 24.832031 " fill-opacity="1" fill-rule="nonzero"/><path fill="#f5cc00" d="M 30.222656 37.257812 L 32.015625 37.640625 L 32.945312 36.0625 L 33.136719 37.871094 L 34.9375 38.25 L 33.253906 38.992188 L 33.445312 40.792969 L 32.214844 39.449219 L 30.535156 40.179688 L 31.445312 38.609375 Z M 30.222656 37.257812 " fill-opacity="1" fill-rule="nonzero"/><path fill="#f5cc00" d="M 36.480469 29.171875 L 37.835938 30.386719 L 39.4375 29.472656 L 38.691406 31.140625 L 40.050781 32.355469 L 38.222656 32.164062 L 37.476562 33.824219 L 37.089844 32.046875 L 35.265625 31.855469 L 36.859375 30.949219 Z M 36.480469 29.171875 " fill-opacity="1" fill-rule="nonzero"/><path fill="#f5cc00" d="M 65.820312 37.257812 L 64.019531 37.640625 L 63.089844 36.0625 L 62.898438 37.871094 L 61.105469 38.25 L 62.789062 38.992188 L 62.597656 40.792969 L 63.828125 39.449219 L 65.503906 40.179688 L 64.582031 38.609375 Z M 65.820312 37.257812 " fill-opacity="1" fill-rule="nonzero"/><path fill="#f5cc00" d="M 59.566406 29.171875 L 58.191406 30.386719 L 56.605469 29.472656 L 57.351562 31.140625 L 55.980469 32.355469 L 57.820312 32.164062 L 58.566406 33.824219 L 58.945312 32.046875 L 60.78125 31.855469 L 59.1875 30.949219 Z M 59.566406 29.171875 " fill-opacity="1" fill-rule="nonzero"/><path fill="#ffffff" d="M 48.019531 52.71875 C 46.273438 53.917969 44.433594 56.53125 40.175781 56.53125 C 34.160156 56.53125 31.921875 54.769531 30.144531 53.429688 L 31.667969 52.515625 C 34.082031 54.195312 36.765625 55.683594 41.773438 55.46875 C 35.589844 54.917969 31.40625 51.554688 30.144531 48.441406 C 33.488281 46.125 39.027344 46.171875 43.566406 49.363281 C 42.152344 47.617188 37.40625 45.671875 33.867188 46.210938 C 33.359375 45.6875 32.914062 45.039062 32.398438 44.515625 C 36.476562 43.617188 42.152344 46.195312 44.230469 48.316406 C 42.03125 44.839844 40.4375 40.902344 43.035156 36.117188 C 43.539062 36.59375 44.121094 37.078125 44.628906 37.554688 C 42.683594 41.078125 43.390625 45.1875 44.960938 48.054688 C 42.238281 42.496094 44.433594 37.015625 48.019531 34.347656 C 51.605469 37.015625 53.796875 42.496094 51.074219 48.054688 C 52.644531 45.1875 53.359375 41.078125 51.40625 37.554688 C 51.914062 37.078125 52.496094 36.59375 53.003906 36.117188 C 55.597656 40.902344 54.003906 44.839844 51.804688 48.316406 C 53.890625 46.199219 59.558594 43.617188 63.628906 44.515625 C 63.128906 45.039062 62.683594 45.6875 62.171875 46.210938 C 58.628906 45.671875 53.890625 47.617188 52.472656 49.363281 C 57.011719 46.171875 62.550781 46.125 65.898438 48.441406 C 64.636719 51.554688 60.445312 54.917969 54.265625 55.46875 C 59.273438 55.679688 61.945312 54.195312 64.367188 52.515625 L 65.898438 53.429688 C 64.105469 54.769531 61.878906 56.53125 55.859375 56.53125 C 51.605469 56.53125 49.765625 53.917969 48.019531 52.71875 " fill-opacity="1" fill-rule="nonzero"/><path fill="#ffffff" d="M 48.019531 53.878906 C 45.519531 55.953125 44.003906 57.269531 40.683594 57.269531 L 30.683594 57.246094 C 30.9375 57.722656 31.21875 58.199219 31.503906 58.640625 L 40.972656 58.660156 C 45.527344 58.660156 48.019531 55.785156 48.019531 55.785156 C 48.019531 55.785156 50.511719 58.660156 55.066406 58.660156 L 64.535156 58.648438 C 64.828125 58.199219 65.101562 57.730469 65.351562 57.253906 L 55.351562 57.269531 C 52.035156 57.269531 50.527344 55.953125 48.019531 53.878906 " fill-opacity="1" fill-rule="nonzero"/><path fill="#ffffff" d="M 32.382812 59.898438 L 32.757812 60.378906 L 63.28125 60.378906 L 63.664062 59.898438 Z M 32.382812 59.898438 " fill-opacity="1" fill-rule="nonzero"/><path fill="#ffffff" d="M 34.058594 61.816406 L 35.089844 62.785156 L 60.957031 62.785156 L 61.980469 61.816406 Z M 34.058594 61.816406 " fill-opacity="1" fill-rule="nonzero"/><path fill="#ffffff" d="M 36.289062 63.753906 C 37.007812 64.285156 37.765625 64.769531 38.550781 65.199219 L 57.488281 65.199219 C 58.273438 64.769531 59.035156 64.285156 59.75 63.753906 Z M 36.289062 63.753906 " fill-opacity="1" fill-rule="nonzero"/><path fill="#ffffff" d="M 39.488281 65.679688 C 41.996094 66.886719 44.804688 67.578125 47.765625 67.609375 L 48.273438 67.609375 C 51.238281 67.578125 54.042969 66.886719 56.550781 65.679688 Z M 39.488281 65.679688 " fill-opacity="1" fill-rule="nonzero"/></svg>